Patient4_TMGait_0pt4_01_left_26_GRF.mot
version=1
nRows=78
nColumns=19
inDegrees=no
endheader
time	F1x	F1y	F1z	M1x	M1y	M1z	F2x	F2y	F2z	M2x	M2y	M2z	EC1x	EC1y	EC1z	EC2x	EC2y	EC2z
31.5	2.9373	-6.8653	-10.1622	2.8592	9.0904	-8.9801	-25.1389	747.0981	-80.244	280.2493	97.0918	828.9429	-0.0592	0.0182	-0.0073	-0.0462	0.0165	0.9585
31.5131	1.9667	-4.0782	-6.8532	1.7511	6.092	-5.3607	-23.2991	735.3739	-76.797	276.2007	92.705	811.182	-0.0592	0.0182	-0.0073	-0.0462	0.0165	0.9585
31.5261	1.1188	-1.682	-4.0349	0.79469	3.5491	-2.2656	-20.888	724.9818	-73.2352	272.6726	87.9273	794.6136	-0.0592	0.0182	-0.0073	-0.0462	0.0165	0.9585
31.5392	0.44169	0.19125	-1.8699	0.048392	1.6042	0.14495	-18.0364	717.5057	-69.8142	270.2732	83.0867	781.1743	-0.0592	0.0182	-0.0073	-0.0462	0.0165	0.9585
31.5523	-0.046822	1.5427	-0.3681	-0.48648	0.26248	1.8698	-14.9199	714.0391	-66.7512	269.4329	78.4896	772.1596	-0.0592	0.0182	-0.0073	-0.0462	0.0165	0.9585
31.5654	-0.3744	2.4242	0.57129	-0.83134	-0.5716	2.9882	-11.7007	715.07	-64.2005	270.3514	74.3692	768.1246	-0.0592	0.0182	-0.0073	-0.0462	0.0165	0.9585
31.5784	-0.57288	2.9178	1.0664	-1.0203	-1.0083	3.6123	-8.4696	720.5039	-62.2431	273.0039	70.8563	768.934	-0.0592	0.0182	-0.0073	-0.0462	0.0165	0.9585
31.5915	-0.68336	3.0843	1.2553	-1.0841	-1.1755	3.8324	-5.2794	729.7463	-60.8754	277.1666	67.971	773.9059	-0.0592	0.0182	-0.0073	-0.0462	0.0165	0.9585
31.6046	-0.74341	2.9548	1.2443	-1.0432	-1.174	3.7012	-2.1262	741.7306	-60.0343	282.4263	65.6454	781.852	-0.0592	0.0182	-0.0073	-0.0462	0.0165	0.9585
31.6176	-0.78494	2.531	1.1295	-0.90457	-1.0917	3.2197	0.97944	754.9988	-59.6316	288.2066	63.7816	791.2047	-0.0592	0.0182	-0.0073	-0.0462	0.0165	0.9585
31.6307	-0.8294	1.7988	0.97219	-0.66309	-0.98329	2.3695	4.0229	767.8337	-59.5678	293.8265	62.2643	800.1564	-0.0592	0.0182	-0.0073	-0.0462	0.0165	0.9585
31.6438	-0.87837	0.7072	0.81011	-0.29764	-0.87394	1.0889	6.9957	778.533	-59.7447	298.607	60.9791	806.947	-0.0592	0.0182	-0.0073	-0.0462	0.0165	0.9585
31.6569	-0.9168	-0.781	0.65958	0.20865	-0.7672	-0.67029	9.881	785.7025	-60.0499	301.9888	59.8084	810.1703	-0.0592	0.0182	-0.0073	-0.0462	0.0165	0.9585
31.6699	-0.89694	-2.6589	0.52092	0.85459	-0.64372	-2.9077	12.649	788.4762	-60.3901	303.6191	58.6661	808.9911	-0.0592	0.0182	-0.0073	-0.0462	0.0165	0.9585
31.683	-0.74639	-4.8465	0.3947	1.6108	-0.47683	-5.5236	15.2669	786.6453	-60.7204	303.3981	57.5233	803.267	-0.0592	0.0182	-0.0073	-0.0462	0.0165	0.9585
31.6961	-0.36602	-7.0727	0.26277	2.3813	-0.21509	-8.1927	17.7276	780.6595	-61.0501	301.4828	56.4073	793.516	-0.0592	0.0182	-0.0073	-0.0462	0.0165	0.9585
31.7091	0.36761	-8.8151	0.13002	2.9827	0.17649	-10.2858	20.0308	771.5135	-61.4245	298.242	55.3783	780.793	-0.0592	0.0182	-0.0073	-0.0462	0.0165	0.9585
31.7222	1.5783	-9.213	-0.016506	3.118	0.74335	-10.7816	22.2341	760.483	-61.9009	294.1589	54.4877	766.406	-0.0592	0.0182	-0.0073	-0.0462	0.0165	0.9585
31.7353	3.3521	-6.9954	-0.15172	2.3551	1.4808	-8.188	24.4222	748.7818	-62.5211	289.7015	53.7591	751.5857	-0.0592	0.0182	-0.0073	-0.0462	0.0165	0.9585
31.7484	5.7155	-0.48115	-0.25096	0.12053	2.3568	-0.52646	26.6521	737.2224	-63.2767	285.1896	53.1758	737.166	-0.0592	0.0182	-0.0073	-0.0462	0.0165	0.9585
31.7614	8.5485	12.2982	-0.23683	-4.2603	3.2361	14.5383	28.9141	725.9422	-64.1015	280.6854	52.6884	723.3262	-0.0592	0.0182	-0.0073	-0.0462	0.0165	0.9585
31.7745	11.5128	33.3727	-0.019272	-11.4842	3.8905	39.4018	31.0828	714.2605	-64.856	275.9366	52.217	709.4645	-0.0592	0.0182	-0.0073	-0.0462	0.0165	0.9585
31.7876	13.9373	64.3459	0.5366	-22.1024	3.9338	75.9694	32.9176	700.7057	-65.3206	270.3889	51.6457	694.2191	-0.0592	0.0182	-0.0073	-0.0462	0.0165	0.9585
31.8006	14.7526	105.5921	1.5733	-36.2489	2.8325	124.7037	34.0944	683.303	-65.2155	263.2948	50.831	675.7518	-0.0592	0.0182	-0.0073	-0.0462	0.0165	0.9585
31.8137	12.6703	155.4437	3.2543	-53.3546	-0.027376	183.6635	34.3111	660.0456	-64.2506	253.9036	49.6158	652.1693	-0.0592	0.0182	-0.0073	-0.0462	0.0165	0.9585
31.8268	7.4008	210.0782	5.8825	-72.0859	-5.0948	248.3307	33.3804	629.5611	-62.1808	241.7209	47.8447	622.1474	-0.0592	0.0182	-0.0073	-0.0462	0.0165	0.9585
31.8399	0.26093	265.0289	10.0388	-90.8677	-12.536	313.2926	31.3547	591.7185	-58.8976	226.7348	45.4061	585.4907	-0.0592	0.0182	-0.0073	-0.0462	0.0165	0.9585
31.8529	-7.3816	318.2612	15.3635	-108.9855	-21.4494	375.9009	28.5482	547.8052	-54.4974	209.4666	42.2782	543.2982	-0.0592	0.0182	-0.0073	-0.0462	0.0165	0.9585
31.866	-14.4778	369.8438	21.3729	-126.4641	-30.8983	436.0654	25.429	499.9647	-49.2924	190.7583	38.5683	497.4368	-0.0592	0.0182	-0.0073	-0.0462	0.0165	0.9585
31.8791	-20.3924	420.0367	27.4981	-143.4142	-39.9967	494.0835	22.4675	450.3621	-43.6262	171.4609	34.4002	449.77	-0.0592	0.0182	-0.0073	-0.0462	0.0165	0.9585
31.8921	-24.9074	468.5254	33.321	-159.7428	-48.1755	549.6259	19.9669	400.6373	-37.7521	152.2219	29.8753	401.7	-0.0592	0.0182	-0.0073	-0.0462	0.0165	0.9585
31.9052	-28.0456	514.2566	38.4956	-175.1043	-55.047	601.4887	17.9929	351.764	-31.8829	133.4218	25.1413	354.0711	-0.0592	0.0182	-0.0073	-0.0462	0.0165	0.9585
31.9183	-29.8874	555.991	42.8676	-189.0756	-60.4743	648.2693	16.3927	304.2376	-26.2223	115.242	20.4215	307.3558	-0.0592	0.0182	-0.0073	-0.0462	0.0165	0.9585
31.9314	-30.5185	592.8449	46.4379	-201.348	-64.5164	688.999	14.8957	258.3998	-20.934	97.7894	15.9521	261.9529	-0.0592	0.0182	-0.0073	-0.0462	0.0165	0.9585
31.9444	-30.0819	624.6402	49.3612	-211.8421	-67.424	723.5707	13.2525	214.6351	-16.1636	81.1837	11.9566	218.3266	-0.0592	0.0182	-0.0073	-0.0462	0.0165	0.9585
31.9575	-28.7408	651.6982	51.7889	-220.6628	-69.4567	752.4152	11.2865	173.5393	-12.0025	65.6239	8.5926	177.1525	-0.0592	0.0182	-0.0073	-0.0462	0.0165	0.9585
31.9706	-26.8431	674.5634	53.9315	-227.9939	-70.9839	776.2694	8.9755	135.9109	-8.526	51.3889	5.9588	139.3014	-0.0592	0.0182	-0.0073	-0.0462	0.0165	0.9585
31.9836	-24.7509	693.8786	55.9164	-234.0641	-72.2828	795.9359	6.4512	102.594	-5.7601	38.784	4.0546	105.6687	-0.0592	0.0182	-0.0073	-0.0462	0.0165	0.9585
31.9967	-22.755	710.4281	57.7963	-239.1467	-73.5118	812.3692	3.945	74.2555	-3.6914	28.0544	2.805	76.9633	-0.0592	0.0182	-0.0073	-0.0462	0.0165	0.9585
32.0098	-21.0113	724.8888	59.4886	-243.4906	-74.6317	826.3557	1.7377	51.1523	-2.2385	19.3007	2.0502	53.4621	-0.0592	0.0182	-0.0073	-0.0462	0.0165	0.9585
32.0229	-19.5872	737.6711	60.9531	-247.2531	-75.611	838.3713	0.0025827	33.1157	-1.2761	12.4653	1.613	35.0268	-0.0592	0.0182	-0.0073	-0.0462	0.0165	0.9585
32.0359	-18.4739	748.8699	62.1747	-250.4749	-76.4216	848.5108	-1.1755	19.6524	-0.65958	7.3685	1.3285	21.1796	-0.0592	0.0182	-0.0073	-0.0462	0.0165	0.9585
32.049	-17.587	758.3282	63.2294	-253.0985	-77.1049	856.5642	-1.7877	10.1123	-0.28265	3.7646	1.0957	11.294	-0.0592	0.0182	-0.0073	-0.0462	0.0165	0.9585
32.0621	-16.8274	765.8195	64.139	-255.0434	-77.6423	862.255	-1.8913	3.7903	-0.066012	1.3852	0.86009	4.6743	-0.0592	0.0182	-0.0073	-0.0462	0.0165	0.9585
32.0751	-16.0427	771.1679	64.9377	-256.2504	-78.0135	865.3678	-1.6427	-0.00038523	0.039415	-0.032354	0.62779	0.63393	-0.0592	0.0182	-0.0073	-0.0462	0.0165	0.9585
32.0882	-15.124	774.3294	65.589	-256.7158	-78.1424	865.862	-1.2426	-1.8955	0.071409	-0.73453	0.42851	-1.4518	-0.0592	0.0182	-0.0073	-0.0462	0.0165	0.9585
32.1013	-13.996	775.4105	66.0796	-256.4911	-77.9916	863.8874	-0.80573	-2.5152	0.051758	-0.95494	0.27812	-2.2127	-0.0592	0.0182	-0.0073	-0.0462	0.0165	0.9585
32.1144	-12.6283	774.679	66.3627	-255.6873	-77.5087	859.7926	-0.43106	-2.3669	0.0045812	-0.88476	0.18147	-2.1525	-0.0592	0.0182	-0.0073	-0.0462	0.0165	0.9585
32.1274	-11.0437	772.5246	66.431	-254.4589	-76.6981	854.0831	-0.13274	-1.8351	-0.057828	-0.66831	0.13001	-1.6762	-0.0592	0.0182	-0.0073	-0.0462	0.0165	0.9585
32.1405	-9.3038	769.4237	66.2519	-252.9908	-75.5541	847.3426	0.083127	-1.1577	-0.12515	-0.39867	0.11257	-1.0278	-0.0592	0.0182	-0.0073	-0.0462	0.0165	0.9585
32.1536	-7.5121	765.8815	65.8258	-251.4707	-74.1143	840.195	0.22516	-0.49754	-0.18555	-0.13712	0.11522	-0.38099	-0.0592	0.0182	-0.0073	-0.0462	0.0165	0.9585
32.1666	-5.7344	762.3677	65.1279	-250.0687	-72.3804	833.1804	0.31047	0.069179	-0.23211	0.0877	0.12798	0.18475	-0.0592	0.0182	-0.0073	-0.0462	0.0165	0.9585
32.1797	-4.0282	759.2581	64.2056	-248.9068	-70.4201	826.7202	0.35216	0.5253	-0.26221	0.26821	0.14447	0.65631	-0.0592	0.0182	-0.0073	-0.0462	0.0165	0.9585
32.1928	-2.4184	756.7711	63.1124	-248.0419	-68.3017	821.0332	0.36836	0.85482	-0.27455	0.40099	0.1566	1.0071	-0.0592	0.0182	-0.0073	-0.0462	0.0165	0.9585
32.2059	-0.92074	754.9562	61.9604	-247.4667	-66.1439	816.1573	0.35355	1.0869	-0.27257	0.49464	0.16802	1.2713	-0.0592	0.0182	-0.0073	-0.0462	0.0165	0.9585
32.2189	0.46071	753.7195	60.8214	-247.1271	-64.0225	811.9742	0.3374	1.2421	-0.26486	0.5553	0.1764	1.4546	-0.0592	0.0182	-0.0073	-0.0462	0.0165	0.9585
32.232	1.7378	752.8621	59.7787	-246.9305	-62.0137	808.2517	0.30578	1.3293	-0.25743	0.58473	0.18927	1.5699	-0.0592	0.0182	-0.0073	-0.0462	0.0165	0.9585
32.2451	2.969	752.1017	58.8723	-246.7546	-60.1373	804.6582	0.27065	1.3312	-0.25774	0.5771	0.21344	1.5882	-0.0592	0.0182	-0.0073	-0.0462	0.0165	0.9585
32.2581	4.2252	751.1319	58.1695	-246.4664	-58.4373	800.8472	0.23859	1.2133	-0.26823	0.51822	0.24839	1.4625	-0.0592	0.0182	-0.0073	-0.0462	0.0165	0.9585
32.2712	5.5649	749.7092	57.7012	-245.9566	-56.9313	796.5513	0.19892	0.911	-0.28955	0.3841	0.29305	1.1138	-0.0592	0.0182	-0.0073	-0.0462	0.0165	0.9585
32.2843	7.0201	747.7073	57.5057	-245.1564	-55.6555	791.643	0.16298	0.34528	-0.3189	0.14551	0.34081	0.44315	-0.0592	0.0182	-0.0073	-0.0462	0.0165	0.9585
32.2974	8.6235	745.1575	57.5883	-244.0553	-54.6163	786.1479	0.12727	-0.53655	-0.34761	-0.22199	0.38332	-0.60932	-0.0592	0.0182	-0.0073	-0.0462	0.0165	0.9585
32.3104	10.4102	742.2636	57.967	-242.7058	-53.8344	780.27	0.10294	-1.794	-0.36475	-0.74026	0.4053	-2.1235	-0.0592	0.0182	-0.0073	-0.0462	0.0165	0.9585
32.3235	12.4113	739.3446	58.6353	-241.2127	-53.3035	774.3314	0.084155	-3.4195	-0.35657	-1.4055	0.39062	-4.0822	-0.0592	0.0182	-0.0073	-0.0462	0.0165	0.9585
32.3366	14.6545	736.7794	59.5951	-239.7127	-53.0246	768.7266	0.10012	-5.3194	-0.30376	-2.176	0.30717	-6.3768	-0.0592	0.0182	-0.0073	-0.0462	0.0165	0.9585
32.3496	17.1554	734.9377	60.8261	-238.3511	-52.9804	763.8583	0.16363	-7.2432	-0.18008	-2.9465	0.1181	-8.7048	-0.0592	0.0182	-0.0073	-0.0462	0.0165	0.9585
32.3627	19.9024	734.0721	62.3065	-237.2423	-53.1569	760.0165	0.29664	-8.7047	0.047501	-3.5184	-0.2233	-10.4859	-0.0592	0.0182	-0.0073	-0.0462	0.0165	0.9585
32.3758	22.8195	734.2487	63.9786	-236.4419	-53.5174	757.3098	0.54249	-8.9074	0.4079	-3.5708	-0.76343	-10.7791	-0.0592	0.0182	-0.0073	-0.0462	0.0165	0.9585
32.3889	25.8218	735.3052	65.7716	-235.9271	-54.0164	755.6134	0.91804	-6.71	0.93226	-2.6438	-1.5382	-8.2239	-0.0592	0.0182	-0.0073	-0.0462	0.0165	0.9585
32.4019	28.7987	736.8371	67.5758	-235.5913	-54.5802	754.5573	1.4463	-0.63549	1.624	-0.14081	-2.5503	-1.0616	-0.0592	0.0182	-0.0073	-0.0462	0.0165	0.9585
32.415	31.6281	738.1943	69.2882	-235.2396	-55.1437	753.5224	2.1206	11.0753	2.4489	4.6399	-3.7457	12.8155	-0.0592	0.0182	-0.0073	-0.0462	0.0165	0.9585
32.4281	34.1945	738.4628	70.7816	-234.5859	-55.6164	751.6231	2.9012	30.1785	3.3022	12.3972	-4.9675	35.5088	-0.0592	0.0182	-0.0073	-0.0462	0.0165	0.9585
32.4411	36.3869	736.4743	71.9129	-233.2577	-55.8922	747.7317	3.6657	58.0104	3.9855	23.6524	-5.916	68.6373	-0.0592	0.0182	-0.0073	-0.0462	0.0165	0.9585
32.4542	38.0924	730.8432	72.4872	-230.8154	-55.816	740.4965	4.2098	94.7916	4.166	38.4629	-6.103	112.5069	-0.0592	0.0182	-0.0073	-0.0462	0.0165	0.9585
32.4673	39.1867	720.1062	72.2909	-226.7999	-55.221	728.4937	4.1595	138.6119	3.3656	56.0231	-4.8121	164.8872	-0.0592	0.0182	-0.0073	-0.0462	0.0165	0.9585
32.4804	39.5957	702.9594	71.0931	-220.8163	-53.9144	710.4299	2.7281	184.6087	1.0462	74.351	-1.1443	220.021	-0.0592	0.0182	-0.0073	-0.0462	0.0165	0.9585
32.4934	39.3001	678.6215	68.7556	-212.6463	-51.7799	685.4984	-0.66224	226.5363	-2.9072	90.9696	5.1404	270.4468	-0.0592	0.0182	-0.0073	-0.0462	0.0165	0.9585
32.5065	38.4025	647.1863	65.2758	-202.3496	-48.7912	653.7051	-5.9648	261.5567	-7.7083	104.7596	13.0762	312.7181	-0.0592	0.0182	-0.0073	-0.0462	0.0165	0.9585
